<svg xmlns="http://www.w3.org/2000/svg" width="221" height="65" viewBox="0 0 221 65" fill="none"><path fill-rule="evenodd" clip-rule="evenodd" d="M104.567 43.17C99.1665 47.17 91.2665 49.27 84.4665 49.27C75.4665 49.27 66.6665 45.97 59.9665 39.97C59.4665 39.47 59.8665 38.87 60.5665 39.27C68.0665 43.57 76.4665 45.77 85.0665 45.77C91.4665 45.77 97.8665 44.47 103.767 41.97C104.667 41.47 105.467 42.47 104.567 43.17Z" fill="white"></path><path fill-rule="evenodd" clip-rule="evenodd" d="M106.867 40.57C106.167 39.67 102.267 40.17 100.567 40.37C100.067 40.47 99.9665 39.97 100.467 39.67C103.567 37.47 108.667 38.17 109.267 38.87C109.867 39.57 109.067 44.67 106.167 47.17C105.767 47.57 105.267 47.37 105.467 46.87C106.067 45.17 107.467 41.47 106.867 40.57Z" fill="white"></path><path fill-rule="evenodd" clip-rule="evenodd" d="M100.567 24.27V22.17C100.567 21.87 100.767 21.67 101.067 21.67H110.667C110.967 21.67 111.167 21.87 111.167 22.17V23.97C111.067 24.47 110.767 24.97 110.467 25.27L105.567 32.27C107.467 32.17 109.267 32.57 110.967 33.47C111.267 33.67 111.467 33.97 111.467 34.27V36.57C111.467 36.87 111.167 37.27 110.767 37.07C107.667 35.47 103.867 35.47 100.767 37.07C100.467 37.27 100.067 36.87 100.067 36.57V34.47C100.067 33.97 100.167 33.47 100.467 32.97L106.167 24.77H101.167C100.867 24.77 100.667 24.57 100.567 24.27Z" fill="white"></path><path fill-rule="evenodd" clip-rule="evenodd" d="M65.9665 37.47H63.0665C62.7665 37.47 62.5665 37.27 62.5665 36.97V22.17C62.5665 21.87 62.8665 21.67 63.1665 21.67H65.8665C66.1665 21.67 66.3665 21.87 66.3665 22.17V24.07H66.4665C66.9665 22.37 68.5665 21.27 70.2665 21.37C72.0665 21.37 73.1665 22.27 73.9665 24.07C74.7665 21.87 77.2665 20.77 79.4665 21.57C80.1665 21.87 80.8665 22.27 81.2665 22.87C82.1665 24.07 81.9665 25.97 81.9665 27.47V36.87C81.9665 37.17 81.6665 37.37 81.3665 37.37H78.4665C78.1665 37.37 77.9665 37.17 77.9665 36.87V29.07C77.9665 28.17 77.9665 27.17 77.8665 26.27C77.7665 25.47 76.9665 24.87 76.1665 24.97C75.3665 24.97 74.7665 25.47 74.4665 26.17C74.2665 27.17 74.1665 28.17 74.2665 29.07V36.97C74.2665 37.27 73.9665 37.47 73.6665 37.47H70.7665C70.4665 37.47 70.2665 37.27 70.2665 36.97V29.07C70.2665 27.37 70.5665 24.97 68.4665 24.97C66.3665 24.97 66.4665 27.37 66.4665 29.07V36.97C66.5665 37.27 66.2665 37.47 65.9665 37.47Z" fill="white"></path><path fill-rule="evenodd" clip-rule="evenodd" d="M119.367 21.27C123.667 21.27 125.967 24.97 125.967 29.67C125.967 34.17 123.367 37.77 119.367 37.77C115.167 37.77 112.867 34.07 112.867 29.47C112.867 24.87 115.167 21.27 119.367 21.27ZM119.367 24.37C117.267 24.37 117.067 27.27 117.067 29.07C117.067 30.87 117.067 34.77 119.267 34.77C121.467 34.77 121.567 31.67 121.567 29.77C121.567 28.47 121.467 27.17 121.167 25.87C121.067 24.87 120.267 24.27 119.367 24.37Z" fill="white"></path><path fill-rule="evenodd" clip-rule="evenodd" d="M131.567 37.47H128.667C128.367 37.47 128.167 37.27 128.167 36.97V22.07C128.167 21.77 128.467 21.57 128.767 21.57H131.467C131.667 21.57 131.967 21.77 131.967 21.97V24.27H132.067C132.867 22.27 133.967 21.27 135.967 21.27C137.367 21.17 138.567 21.87 139.367 22.97C140.167 24.17 140.167 26.17 140.167 27.57V36.87C140.167 37.17 139.867 37.37 139.567 37.37H136.667C136.367 37.37 136.167 37.17 136.167 36.87V28.87C136.167 27.27 136.367 24.87 134.367 24.87C133.667 24.87 132.967 25.37 132.667 26.07C132.267 26.97 132.167 27.87 132.167 28.87V36.87C132.067 37.27 131.867 37.47 131.567 37.47Z" fill="white"></path><path fill-rule="evenodd" clip-rule="evenodd" d="M55.1665 30.37C55.2665 31.47 55.0665 32.47 54.6665 33.47C54.2665 34.27 53.5665 34.77 52.6665 34.77C51.5665 34.77 50.8665 33.97 50.8665 32.67C50.8665 30.17 53.0665 29.77 55.1665 29.77V30.37ZM58.0665 37.47C57.8665 37.67 57.5665 37.67 57.3665 37.57C56.6665 37.07 56.1665 36.37 55.6665 35.67C54.4665 37.07 52.7665 37.87 50.8665 37.77C48.5665 37.67 46.6665 36.17 46.6665 33.17C46.5665 31.07 47.8665 29.17 49.7665 28.47C51.5665 27.87 53.3665 27.57 55.1665 27.47V27.07C55.2665 26.37 55.1665 25.67 54.7665 24.97C54.4665 24.47 53.8665 24.17 53.1665 24.27C52.0665 24.17 51.0665 24.87 50.8665 25.97C50.8665 26.27 50.6665 26.47 50.3665 26.47L47.5665 26.17C47.2665 26.17 47.0665 25.87 47.1665 25.67C47.7665 22.17 50.8665 21.17 53.5665 21.17C55.1665 21.07 56.6665 21.67 57.8665 22.57C59.2665 23.87 59.1665 25.67 59.1665 27.57V32.07C59.1665 33.07 59.5665 34.07 60.2665 34.77C60.4665 34.97 60.4665 35.37 60.2665 35.57C59.7665 36.07 58.6665 36.97 58.0665 37.47Z" fill="white"></path><path fill-rule="evenodd" clip-rule="evenodd" d="M93.0665 30.37C93.1665 31.47 92.9665 32.47 92.5665 33.47C92.1665 34.27 91.4665 34.77 90.5665 34.77C89.4665 34.77 88.7665 33.97 88.7665 32.67C88.7665 30.17 90.9665 29.77 93.0665 29.77V30.37ZM95.9665 37.47C95.7665 37.67 95.4665 37.67 95.2665 37.57C94.5665 37.07 94.0665 36.37 93.5665 35.67C92.3665 37.07 90.6665 37.87 88.7665 37.77C86.3665 37.77 84.4665 36.27 84.4665 33.27C84.3665 31.17 85.6665 29.27 87.5665 28.57C89.3665 27.97 91.1665 27.67 92.9665 27.57V27.07C93.0665 26.37 92.9665 25.67 92.5665 24.97C92.1665 24.47 91.5665 24.17 90.9665 24.17C89.8665 24.07 88.8665 24.87 88.6665 25.87C88.6665 26.17 88.4665 26.37 88.1665 26.37L85.4665 26.17C85.1665 26.17 84.9665 25.87 85.0665 25.57C85.6665 22.17 88.7665 21.17 91.4665 21.17C93.0665 21.07 94.5665 21.67 95.8665 22.57C97.2665 23.87 97.1665 25.67 97.1665 27.57V32.07C97.1665 33.07 97.5665 34.07 98.2665 34.77C98.4665 34.97 98.4665 35.37 98.2665 35.57C97.5665 36.07 96.5665 36.97 95.9665 37.47Z" fill="white"></path><path fill-rule="evenodd" clip-rule="evenodd" d="M156.667 37.5H155.467C155.167 37.5 154.967 37.3 154.967 37V35.1C154.267 36.8 152.567 37.9 150.767 37.8C148.967 37.8 147.267 36.8 146.467 35.1C145.567 33.4 145.067 31.5 145.167 29.5C145.167 25.5 146.767 21.1 150.967 21.1C152.567 21.1 154.067 21.9 154.767 23.3V16.5C154.767 16.2 154.967 16 155.267 16H156.667C156.967 16 157.167 16.2 157.167 16.5V37C157.067 37.3 156.867 37.5 156.667 37.5ZM165.267 21.2C169.567 21.2 171.367 25.1 171.367 29.3C171.367 29.6 171.167 29.8 170.867 29.8H161.367C161.267 31 161.467 32.3 161.967 33.4C162.567 34.8 163.867 35.7 165.367 35.8C166.967 35.7 168.267 34.7 168.767 33.2C168.867 33 169.167 32.8 169.367 32.9L170.667 33C170.967 33 171.067 33.3 171.067 33.5C170.267 36.1 167.967 37.8 165.267 37.7C160.967 37.7 158.867 33.9 158.867 29.4C158.867 25.1 161.067 21.2 165.267 21.2ZM154.767 30.6V28.1C154.867 27 154.567 25.9 154.067 24.9C153.467 23.9 152.367 23.2 151.167 23.1C149.967 23.2 148.967 24 148.467 25.1C147.867 26.4 147.567 27.8 147.667 29.2C147.667 31.8 148.267 35.6 151.067 35.7C152.267 35.6 153.367 34.9 153.967 33.8C154.567 32.9 154.867 31.7 154.767 30.6ZM161.567 27.9H168.867C168.867 25.3 167.667 23.1 165.367 23C163.067 23.1 161.667 25.4 161.567 27.9ZM141.767 36.3C141.767 35.5 142.367 34.8 143.067 34.8C143.867 34.8 144.567 35.4 144.567 36.1C144.567 36.9 143.967 37.6 143.267 37.6C143.267 37.6 143.267 37.6 143.167 37.6C142.467 37.7 141.867 37.1 141.767 36.3Z" fill="white"></path><path d="M173.067 21.8C173.767 21.8 174.367 22.4 174.367 23.1C174.367 23.8 173.767 24.4 173.067 24.4C172.367 24.4 171.767 23.8 171.767 23.1C171.867 22.4 172.367 21.8 173.067 21.8ZM173.067 21.6C172.267 21.6 171.567 22.3 171.567 23.1C171.567 23.9 172.267 24.6 173.067 24.6C173.867 24.6 174.567 23.9 174.567 23.1C174.567 22.2 173.967 21.6 173.067 21.6ZM172.467 23.9H172.767V23.2H173.067C173.167 23.2 173.267 23.2 173.267 23.3L173.367 23.8H173.767C173.767 23.7 173.667 23.5 173.667 23.4C173.667 23.2 173.667 23 173.367 23C173.567 23 173.667 22.8 173.667 22.6C173.667 22.2 173.267 22.2 173.067 22.2H172.467V23.9ZM172.867 22.5H173.167C173.267 22.5 173.367 22.5 173.367 22.7C173.367 22.8 173.267 22.9 173.167 22.9H172.867V22.5Z" fill="white"></path></svg>