<svg xmlns="http://www.w3.org/2000/svg" width="221" height="65" viewBox="0 0 221 65" fill="none"><path d="M33.3333 36.8V15H38.0333V23.2H46.7333V15H51.4333V36.8H46.7333V27.4H38.0333V36.8H33.3333Z" fill="white"></path><path d="M52.8333 21H57.1333V30.8C56.9333 32.1 57.9333 33.4 59.2333 33.6C59.4333 33.6 59.6333 33.6 59.8333 33.6C61.8333 33.6 63.0333 32 63.1333 30.1V21H67.3333V36.8H63.3333V34.6L62.9333 35C61.8333 36.5 60.0333 37.3 58.2333 37.2C56.9333 37.2 55.7333 36.8 54.6333 36.1C54.1333 35.7 53.7333 35.2 53.4333 34.7C52.9333 33.8 52.7333 33.1 52.7333 31L52.8333 21Z" fill="white"></path><path d="M89.2333 27.2H96.0333C96.0333 26.4 95.7333 25.6 95.3333 25C94.2333 23.6 92.2333 23.3 90.7333 24.4C90.4333 24.6 90.1333 24.9 89.9333 25.2C89.5332 25.8 89.3333 26.5 89.2333 27.2ZM84.9333 28.9C84.9333 24.4 87.9333 20.5 92.8333 20.6C93.9333 20.6 94.9333 20.8 95.9333 21.2C97.5332 21.9 98.7333 23.1 99.4333 24.7C99.6332 25.2 99.8333 25.7 99.9333 26.1C100.233 27.2 100.333 28.3 100.333 29.3V30H89.2333V30.3C89.3333 32 90.0333 34.1 92.7333 34.1C94.2333 34.2 95.5333 33.2 96.0333 31.8H100.133C100.133 31.9 100.033 32.1 100.033 32.2C99.1332 35.3 96.1333 37.4 92.9333 37.2C88.3333 37.2 84.9333 34.2 84.9333 28.9Z" fill="white"></path><path d="M101.633 21H105.633V23.2C106.733 21.5 108.633 20.5 110.633 20.6C111.533 20.6 112.333 20.8 113.233 21.1C114.033 21.4 114.733 22 115.233 22.8C115.833 23.6 116.033 24.3 116.033 26.9V36.8H111.833V27.8C111.833 27.4 111.833 27 111.833 26.6C111.833 26.3 111.733 25.9 111.633 25.6C111.133 24.7 110.233 24.1 109.133 24.3C107.933 24.3 106.833 25 106.233 26C105.833 26.9 105.733 27.8 105.833 28.8V36.9H101.633V21Z" fill="white"></path><path d="M121.933 28.9C121.933 31.8 123.433 33.8 125.633 33.8C127.833 33.8 129.333 32.1 129.333 28.9C129.333 28.2 129.233 27.4 129.033 26.8C128.633 25.1 127.233 24 125.533 24C123.333 24 121.933 25.7 121.933 28.9ZM117.633 28.8C117.533 26.8 118.133 24.8 119.333 23.2C121.233 20.6 124.833 19.9 127.633 21.5C128.233 21.9 128.833 22.4 129.233 23V15H133.433V36.8H129.433V34.8C129.233 35.1 129.033 35.4 128.733 35.7C127.633 36.8 126.133 37.4 124.633 37.3C120.033 37 117.633 33.7 117.633 28.8Z" fill="white"></path><path d="M134.933 21H139.233V30.8C139.033 32.1 140.033 33.4 141.333 33.6C141.533 33.6 141.733 33.6 141.933 33.6C143.933 33.6 145.133 32 145.233 30.1V21H149.433V36.8H145.333V34.6L145.033 35C143.933 36.5 142.133 37.3 140.333 37.2C139.033 37.2 137.833 36.8 136.733 36.1C136.233 35.7 135.833 35.2 135.533 34.7C135.033 33.8 134.833 33.1 134.833 31L134.933 21Z" fill="white"></path><path d="M155.033 28.7C154.933 31.5 156.233 33.7 158.633 33.7C159.833 33.8 160.933 33.1 161.533 32.1C162.133 31.1 162.433 29.9 162.333 28.7C162.333 27.4 162.033 26.2 161.233 25.2C160.533 24.4 159.633 24 158.633 24C157.633 24 156.633 24.5 155.933 25.3C155.333 26.3 154.933 27.5 155.033 28.7ZM150.933 36.8V15H155.133V22.9C155.433 22.5 155.733 22.1 156.233 21.8C157.433 20.9 158.933 20.5 160.433 20.6C162.133 20.7 163.733 21.6 164.833 22.9C165.933 24.3 166.533 25.9 166.633 28.7C166.733 30.8 166.133 32.8 165.033 34.5C163.133 37.2 159.533 38.1 156.633 36.5C155.933 36.1 155.433 35.5 154.933 34.8V36.8H150.933Z" fill="white"></path><path d="M171.833 27.2H178.633C178.633 26.4 178.333 25.6 177.933 25C176.833 23.6 174.833 23.3 173.333 24.4C173.033 24.6 172.733 24.9 172.533 25.2C172.233 25.8 171.933 26.5 171.833 27.2ZM167.533 28.9C167.533 24.4 170.533 20.5 175.433 20.6C176.533 20.6 177.533 20.8 178.533 21.2C180.033 21.9 181.333 23.1 182.033 24.7C182.233 25.2 182.433 25.7 182.533 26.1C182.833 27.2 182.933 28.3 182.933 29.3V30H171.833V30.3C171.933 32 172.633 34.1 175.333 34.1C176.833 34.2 178.133 33.2 178.533 31.8H182.633C182.633 31.9 182.533 32.1 182.533 32.2C181.633 35.3 178.633 37.4 175.433 37.2C170.933 37.2 167.533 34.2 167.533 28.9Z" fill="white"></path><path d="M188.033 15H183.833V36.8H188.033V15Z" fill="white"></path><path d="M72.5333 28.4C72.5333 29.3 72.6333 30.2 73.0333 31C73.5333 32.3 74.7332 33.1 76.1333 33.1C76.8333 33.1 77.5333 32.9 78.1333 32.5C79.2332 31.4 79.8333 29.9 79.7333 28.3C79.7333 27.5 79.5333 26.7 79.2333 26C78.7333 24.7 77.4333 23.9 76.1333 24C75.5333 24 74.8333 24.2 74.3333 24.5C73.0333 25.4 72.4333 26.9 72.5333 28.4ZM68.3333 28.4C68.2333 26.4 68.9333 24.4 70.1333 22.9C71.3333 21.5 73.1333 20.7 74.9333 20.7C75.9333 20.7 76.9333 20.9 77.8333 21.3C78.1333 21.5 78.3333 21.7 78.6333 21.9C79.0333 22.3 79.3333 22.7 79.6333 23.2V21H83.6333V35.7C83.6333 37.1 83.3333 38.5 82.6333 39.7C82.2332 40.3 81.7332 40.8 81.1333 41.3C78.8333 42.6 76.2332 43 73.6333 42.5C72.1333 42.3 70.7333 41.5 69.8333 40.3C69.4333 39.8 69.1333 39.2 68.9333 38.6C68.8333 38.3 68.8333 38 68.8333 37.7H73.0333C73.1333 38.2 73.3333 38.7 73.7333 39C74.4333 39.5 75.3333 39.8 76.1333 39.7C77.7332 39.9 79.1333 38.7 79.4333 37.2C79.5332 36.1 79.6333 35 79.5333 33.8L79.1333 34.4C78.0333 35.6 76.5333 36.3 74.8333 36.3C73.0333 36.4 71.2333 35.6 70.0333 34.2C68.8333 32.9 68.3333 31.1 68.3333 28.4Z" fill="white"></path><path d="M77.4333 44.9C76.9333 44.9 76.5332 45.2 76.4333 45.7H78.1333C78.1333 45.3 78.0332 44.9 77.4333 44.9Z" fill="white"></path><path d="M49.0333 44.9C48.5333 44.9 48.1333 45.2 48.0333 45.7H49.7333C49.7333 45.3 49.6333 44.9 49.0333 44.9Z" fill="white"></path><path d="M87.0333 45.7H85.9333L85.6333 47.1H87.0333C87.4333 47.2 87.8333 46.8 87.9333 46.4V46.3C87.9333 45.7 87.4333 45.7 87.0333 45.7Z" fill="white"></path><path d="M61.9333 44.9C61.4333 44.9 61.0333 45.2 60.9333 45.7H62.6333C62.6333 45.3 62.5333 44.9 61.9333 44.9Z" fill="white"></path><path d="M72.9333 44.9C72.1333 44.9 71.8333 45.8 71.8333 46.5C71.7333 46.9 72.0333 47.3 72.5333 47.3H72.6333C73.4333 47.3 73.7333 46.4 73.7333 45.7C73.8333 45.3 73.5333 44.9 73.1333 44.9C73.0333 44.9 72.9333 44.9 72.9333 44.9Z" fill="white"></path><path d="M87.5333 43.7H86.3333L86.0333 44.9H87.3333C87.7333 44.9 88.0333 44.7 88.1333 44.3C88.1333 44.3 88.1333 44.3 88.1333 44.2C88.1333 43.8 87.9333 43.7 87.5333 43.7Z" fill="white"></path><path d="M42.3333 43.7H41.4333L40.7333 47H41.6333C42.6333 47 43.4333 46.1 43.4333 45.1V45C43.4333 44.2 43.1333 43.7 42.3333 43.7Z" fill="white"></path><path d="M104.933 44.9C104.433 44.9 104.033 45.2 103.933 45.7H105.633C105.633 45.3 105.533 44.9 104.933 44.9Z" fill="white"></path><path d="M114.833 40.7H34.6333C33.9333 40.7 33.3333 41.2 33.3333 42V49.2C33.3333 49.9 33.9333 50.5 34.6333 50.5H114.833C115.533 50.5 116.133 49.9 116.133 49.2V42C116.133 41.2 115.533 40.7 114.833 40.7ZM92.7333 42.8H93.7333L93.5333 43.7H92.5333L92.7333 42.8ZM91.3333 42.8H92.3333L92.1333 43.7H91.1333L91.3333 42.8ZM41.6333 48H39.4333L40.5333 42.8H42.4333C43.9333 42.8 44.6333 43.6 44.6333 44.8C44.8333 46.4 43.6333 47.8 42.0333 48C41.9333 48 41.7333 48 41.6333 48ZM45.8333 48H44.8333L45.6333 44.2H46.6333L45.8333 48ZM45.7333 43.6L45.9333 42.7H47.0333L46.8333 43.6H45.7333ZM50.6333 46.4H47.8333V46.6C47.8333 47 48.1333 47.3 48.6333 47.3C48.9333 47.3 49.2333 47.1 49.4333 46.8H50.4333C50.1333 47.6 49.3333 48.2 48.4333 48.1C47.6333 48.2 46.8333 47.6 46.7333 46.7C46.7333 46.6 46.7333 46.5 46.7333 46.4C46.6333 45.2 47.5333 44.2 48.7333 44.1C48.7333 44.1 48.7333 44.1 48.8333 44.1C49.7333 44 50.4333 44.6 50.5333 45.5C50.5333 45.6 50.5333 45.7 50.5333 45.8C50.7333 45.9 50.7333 46.2 50.6333 46.4ZM56.9333 48L56.8333 44.3L55.1333 48H54.0333L53.6333 42.8H54.7333L54.8333 46.6L56.4333 42.8H57.5333L57.6333 46.6L59.2333 42.8H60.3333L58.0333 48H56.9333ZM63.6333 46.4H60.8333V46.6C60.8333 47 61.1333 47.3 61.6333 47.3C61.9333 47.3 62.2333 47.1 62.4333 46.8H63.4333C63.1333 47.6 62.3333 48.2 61.4333 48.1C60.6333 48.2 59.8333 47.6 59.7333 46.7C59.7333 46.6 59.7333 46.5 59.7333 46.4C59.6333 45.2 60.5333 44.2 61.7333 44.1C61.7333 44.1 61.7333 44.1 61.8333 44.1C62.7333 44 63.4333 44.6 63.5333 45.5C63.5333 45.6 63.5333 45.7 63.5333 45.8C63.6333 45.9 63.6333 46.2 63.6333 46.4ZM64.9333 48H63.9333L65.0333 42.8H66.0333L64.9333 48ZM68.5333 44.9H67.8333L67.3333 46.8C67.3333 46.9 67.3333 46.9 67.3333 47C67.3333 47.3 67.5333 47.3 67.6333 47.3C67.7332 47.3 67.8333 47.3 68.0333 47.3L67.9333 48C67.7332 48 67.5333 48 67.2333 48C66.7333 48 66.2333 47.8 66.2333 47.2C66.2333 47.1 66.2333 47 66.2333 46.8L66.6333 44.8H65.9333L66.1333 44.1H66.8333L67.0333 43H68.0333L67.8333 44.1H68.5333V44.9ZM73.2333 48L73.3333 47.5C73.1333 47.9 72.6333 48.1 72.2333 48.1C71.5333 48.1 70.8333 47.6 70.8333 46.8C70.8333 46.7 70.8333 46.7 70.8333 46.6C70.6333 45.4 71.5333 44.3 72.7333 44.1H72.8333C73.2333 44.1 73.7332 44.3 73.9333 44.7L74.3333 43.1H75.3333L74.2333 48H73.2333ZM79.0333 46.4H76.2333V46.6C76.2333 47 76.5333 47.3 77.0333 47.3C77.3333 47.3 77.6333 47.1 77.8333 46.8H78.8333C78.5333 47.6 77.7333 48.2 76.8333 48.1C76.0333 48.2 75.2332 47.6 75.1333 46.7C75.1333 46.6 75.1333 46.5 75.1333 46.4C75.0333 45.2 75.9333 44.2 77.1333 44.1C77.1333 44.1 77.1333 44.1 77.2333 44.1C78.1333 44 78.8333 44.6 78.9333 45.5C78.9333 45.6 78.9333 45.7 78.9333 45.8C79.1333 45.9 79.0333 46.2 79.0333 46.4ZM82.3333 45.1C82.2333 45.1 82.0332 45 81.9333 45C81.1333 45 80.8333 45.6 80.7333 46.2L80.3333 48H79.3333L80.1333 44.2H81.1333L80.9333 44.9C81.1333 44.4 81.6333 44.1 82.2333 44.1C82.3333 44.1 82.4333 44.1 82.5333 44.1L82.3333 45.1ZM89.1333 46.3C89.1333 47.3 88.3333 48.1 87.3333 48C87.2333 48 87.2332 48 87.1333 48H84.3333L85.4333 42.8H87.6333C88.6333 42.8 89.3333 43 89.3333 44C89.3333 44.6 88.9333 45.1 88.3333 45.2C88.7333 45.3 89.1333 45.8 89.1333 46.3ZM93.1333 48H92.1333L92.2333 47.5C91.9333 47.9 91.4333 48.1 90.9333 48.1C90.2332 48.1 89.8333 47.7 89.8333 47.1C89.8333 46.9 89.9333 46.7 89.9333 46.5L90.4333 44.3H91.4333L90.9333 46.5C90.9333 46.7 90.8333 46.8 90.8333 47C90.8333 47.2 91.1333 47.4 91.3333 47.4C91.9333 47.4 92.2332 46.9 92.4333 46.4L92.8333 44.4H93.8333L93.1333 48ZM95.9333 47.3C96.3333 47.3 96.7333 47 96.7333 46.6H97.7333C97.5333 47.5 96.6333 48.1 95.7333 48C94.9333 48.1 94.1333 47.6 94.0333 46.7C94.0333 46.6 94.0333 46.5 94.0333 46.3C93.9333 45.1 94.8333 44.1 95.9333 44C96.0332 44 96.0333 44 96.1333 44C97.0333 44 97.8333 44.4 97.8333 45.4H96.8333C96.8333 45 96.6333 44.8 96.1333 44.8C95.3333 44.8 95.0333 45.8 95.0333 46.4C95.2333 46.9 95.4333 47.3 95.9333 47.3ZM102.133 45.8L101.633 48H100.633L101.133 45.8C101.133 45.7 101.233 45.5 101.233 45.3C101.233 45.1 100.933 44.9 100.733 44.9C100.133 44.9 99.7333 45.4 99.6333 45.9L99.2333 47.9H98.2333L99.3333 42.7H100.333L99.9333 44.6C100.233 44.2 100.733 44 101.133 44.1C101.833 44.1 102.233 44.5 102.233 45.1C102.233 45.3 102.133 45.6 102.133 45.8ZM106.533 46.4H103.733C103.733 46.5 103.733 46.5 103.733 46.6C103.733 47 104.033 47.3 104.533 47.3C104.833 47.3 105.133 47.1 105.333 46.8H106.333C106.033 47.6 105.233 48.2 104.333 48.1C103.533 48.2 102.733 47.6 102.633 46.8C102.633 46.7 102.633 46.6 102.633 46.5C102.533 45.3 103.433 44.3 104.633 44.2C104.633 44.2 104.633 44.2 104.733 44.2C105.633 44.1 106.333 44.7 106.433 45.6C106.433 45.7 106.433 45.8 106.433 45.9C106.633 45.9 106.633 46.2 106.533 46.4ZM109.933 45.1C109.833 45.1 109.633 45 109.533 45C108.733 45 108.433 45.6 108.333 46.2L107.933 48H106.833L107.633 44.2H108.633L108.433 44.9C108.633 44.4 109.133 44.1 109.733 44.1C109.833 44.1 109.933 44.1 110.033 44.1L109.933 45.1Z" fill="white"></path></svg>