<svg xmlns="http://www.w3.org/2000/svg" width="220" height="65" viewBox="0 0 220 65" fill="none"><path fill-rule="evenodd" clip-rule="evenodd" d="M175.3 30.6V31.9C174 30.8 172.3 30.1 170.5 30.1C165.7 30.3 161.9 34.3 162.1 39.1C162.3 43.7 165.9 47.4 170.5 47.5C172.3 47.5 173.9 46.8 175.3 45.6V47.1H180V30.6H175.3ZM171 43C169.3 43 167.8 42 167.1 40.4C166.2 38.3 167.2 35.9 169.3 35C171.4 34.1 173.8 35.1 174.7 37.2C174.9 37.7 175 38.3 175 38.8C175 41 173.2 42.9 171 43C171.1 43 171.1 43 171 43Z" fill="white"></path><path fill-rule="evenodd" clip-rule="evenodd" d="M98.5999 27.9H91.5999V47.2H86.1999V27.9H79.1999V23H98.6999L98.5999 27.9Z" fill="white"></path><path fill-rule="evenodd" clip-rule="evenodd" d="M156.1 22.6C157.2 22.6 158.2 23.3 158.7 24.3C159.3 25.7 158.7 27.3 157.3 27.9C156.6 28.2 155.8 28.2 155.1 27.9C153.7 27.3 153 25.7 153.6 24.3C154 23.3 155 22.6 156.1 22.6Z" fill="white"></path><path d="M148.7 23H143.8V47.1H148.7V23Z" fill="white"></path><path d="M158.6 30.6H153.7V47.2H158.6V30.6Z" fill="white"></path><path fill-rule="evenodd" clip-rule="evenodd" d="M110.8 30.2C109.1 30.1 107.5 30.6 106.1 31.6V23.1H101.2V47.2H106.1V37.9C106.1 36.1 107.6 34.8 109.3 34.8C111 34.8 112.4 36.2 112.4 37.9V47.1H117.4V36.8C117.5 33.1 114.5 30.2 110.8 30.2Z" fill="white"></path><path fill-rule="evenodd" clip-rule="evenodd" d="M134.1 30.6V31.9C132.8 30.8 131.1 30.1 129.3 30.1C124.5 30 120.5 33.8 120.3 38.6C120.2 43.4 124 47.4 128.8 47.6C129 47.6 129.1 47.6 129.3 47.6C131.1 47.6 132.8 46.9 134.1 45.7V47.2H138.8V30.6H134.1ZM129.9 43C128.2 43 126.7 42 126 40.4C125.4 38.9 125.7 37.1 126.9 35.9C128.1 34.7 129.9 34.4 131.4 35C133 35.7 134 37.2 134 38.9C134 41.2 132.2 43 129.9 43Z" fill="white"></path><path d="M47.4999 30.5C50.9999 30.7 54.4999 30 57.7999 28.6C58.6999 28.2 59.6999 27.9 60.5999 27.6C63.7999 26.6 64.3999 26.9 64.3999 26.9C64.0999 26.1 63.0999 26.1 60.9999 26.6C58.8999 27 57.7999 27.6 55.6999 27.9C53.7999 28.2 52.0999 26.8 51.7999 24.9C51.7999 24.7 51.7999 24.4 51.7999 24.2C53.8999 24.8 56.0999 24.6 58.0999 23.6C56.8999 23.6 55.8999 23.1 56.2999 21.4C58.5999 23.7 61.1999 20.6 63.5999 18.7C63.8999 18.5 64.0999 18.3 64.3999 18.1C64.6999 18 64.9999 17.8 65.3999 17.7L65.6999 17.6C66.6999 17.2 67.7999 17 68.8999 17C69.3999 17 69.8999 17.1 70.2999 17.4C70.3999 17.5 70.4999 17.7 70.3999 17.9C71.4999 18 72.3999 19.6 72.3999 20.6C72.7999 21 73.1999 21.3 73.6999 21.6C73.6999 21.6 73.7999 21.7 73.6999 21.7C73.6999 22 73.4999 22.3 73.1999 22.4V22.5C73.5999 22.6 73.4999 23 73.1999 23.1C73.2999 23.1 73.3999 23.2 73.3999 23.3C73.3999 23.4 73.3999 23.5 73.2999 23.6C73.1999 23.7 73.1999 23.7 73.1999 23.8C73.1999 24 73.3999 24 73.4999 24.3C73.5999 24.6 73.4999 24.9 73.2999 25.1C73.0999 25.2 72.7999 25.3 72.5999 25.3C71.7999 25.3 70.8999 25.5 70.1999 26C69.7999 26.3 69.4999 26.7 69.2999 27.1C69.2999 27.3 69.1999 27.4 69.1999 27.6C69.0999 28.2 69.1999 28.9 69.3999 29.5C70.0999 31.5 68.9999 34.3 65.9999 36.9C64.3999 38.3 59.3999 42.4 60.3999 47.8C60.3999 47.8 49.0999 44 52.2999 39.5C53.1999 38.2 55.1999 37.4 57.3999 36.4L57.5999 36.3C59.9999 35.2 61.5999 33.2 60.6999 31.9C60.4999 31.6 60.1999 31.5 59.8999 31.6C57.4999 32.2 50.8999 32 47.1999 31.6C46.7999 31.5 46.4999 31.5 46.0999 31.5H45.8999C45.1999 31.5 44.4999 31.4 43.7999 31.1C43.2999 30.8 42.6999 30.7 42.1999 30.6C41.7999 30.5 41.2999 30.5 41.2999 30.2C41.3999 29.6 42.5999 30.2 43.2999 30.1C43.2999 30.1 43.2999 30 43.1999 30C41.8999 29.5 40.7999 28.6 39.9999 27.5C39.8999 27.3 40.0999 27.1 40.1999 27.2C41.7999 28.6 43.7999 29.6 45.8999 30C46.2999 30.3 46.9999 30.4 47.4999 30.5Z" fill="white"></path></svg>